<mxfile host="app.diagrams.net" agent="Mozilla/5.0 (Windows NT 10.0; Win64; x64) AppleWebKit/537.36 (KHTML, like Gecko) Chrome/138.0.0.0 Safari/537.36" version="27.1.6">
  <diagram name="Page-1" id="QePSi0WvvwqOzXnJHrXC">
    <mxGraphModel dx="815" dy="425" grid="1" gridSize="10" guides="1" tooltips="1" connect="1" arrows="1" fold="1" page="1" pageScale="1" pageWidth="827" pageHeight="1169" math="0" shadow="0">
      <root>
        <mxCell id="0" />
        <mxCell id="1" parent="0" />
        <mxCell id="MB8YyC2LHqcA_exUZN-U-1" value="&lt;p class=&quot;MsoNormal&quot; align=&quot;center&quot; style=&quot;line-height: 150%;&quot;&gt;&lt;span style=&quot;mso-spacerun:&#39;yes&#39;;font-family:仿宋_GB2312;line-height:150%;&amp;lt;br/&amp;gt;font-size:16.0000pt;mso-font-kerning:1.0000pt;&quot;&gt;&lt;font style=&quot;font-size: 24px;&quot;&gt;智能蝶阀在输配管路中的&lt;/font&gt;&lt;/span&gt;&lt;span style=&quot;background-color: transparent; color: light-dark(rgb(0, 0, 0), rgb(255, 255, 255)); font-family: 仿宋_GB2312; font-size: 16pt;&quot;&gt;AI&lt;/span&gt;&lt;span style=&quot;background-color: transparent; color: light-dark(rgb(0, 0, 0), rgb(255, 255, 255)); font-family: 仿宋_GB2312; font-size: 16pt;&quot;&gt;安全&lt;/span&gt;&lt;span style=&quot;background-color: transparent; color: light-dark(rgb(0, 0, 0), rgb(255, 255, 255)); font-family: 仿宋_GB2312; font-size: 16pt;&quot;&gt;监测与诊断系统的研究&lt;/span&gt;&lt;/p&gt;" style="rounded=0;whiteSpace=wrap;html=1;fontStyle=1" parent="1" vertex="1">
          <mxGeometry x="120" y="60" width="600" height="60" as="geometry" />
        </mxCell>
        <mxCell id="MB8YyC2LHqcA_exUZN-U-2" value="问题及需求" style="whiteSpace=wrap;html=1;aspect=fixed;" parent="1" vertex="1">
          <mxGeometry x="120" y="160" width="80" height="80" as="geometry" />
        </mxCell>
        <mxCell id="MB8YyC2LHqcA_exUZN-U-3" value="关键技术" style="whiteSpace=wrap;html=1;aspect=fixed;" parent="1" vertex="1">
          <mxGeometry x="120" y="280" width="80" height="80" as="geometry" />
        </mxCell>
        <mxCell id="MB8YyC2LHqcA_exUZN-U-4" value="预期成果" style="whiteSpace=wrap;html=1;aspect=fixed;" parent="1" vertex="1">
          <mxGeometry x="120" y="400" width="80" height="80" as="geometry" />
        </mxCell>
        <mxCell id="MB8YyC2LHqcA_exUZN-U-5" value="预期成果" style="whiteSpace=wrap;html=1;aspect=fixed;" parent="1" vertex="1">
          <mxGeometry x="120" y="520" width="80" height="80" as="geometry" />
        </mxCell>
        <mxCell id="ncNB8pNAF4bFNKYcvx3l-2" value="1.传统中低压调压站存在用气管路的流量监测价格高昂、体积大质量重、管路改造难等实际问题&lt;span style=&quot;background-color: transparent; color: light-dark(rgb(0, 0, 0), rgb(255, 255, 255));&quot;&gt;，无法开展区域用气分析和区域调度。&lt;/span&gt;&lt;br&gt;&lt;div&gt;2.调压器维保仍以“固定巡检+人工经验”为主，缺乏在线、实时、闭环的稳压性能与密封性诊断评估方式，维护成本高，耗时长效率低，并且漏检风险大。&lt;/div&gt;&lt;div&gt;3.&lt;/div&gt;" style="rounded=0;whiteSpace=wrap;html=1;align=left;" vertex="1" parent="1">
          <mxGeometry x="230" y="160" width="490" height="80" as="geometry" />
        </mxCell>
      </root>
    </mxGraphModel>
  </diagram>
</mxfile>
